<svg width="45" height="46" viewBox="0 0 45 46" fill="none" xmlns="http://www.w3.org/2000/svg">
<path d="M22.5 11.75C22.5 17.9632 17.4632 23 11.25 23H0V11.75C0 5.53679 5.03679 0.5 11.25 0.5C17.4632 0.5 22.5 5.53679 22.5 11.75Z" fill="#17CF97"/>
<path d="M22.5 34.25C22.5 28.0368 27.5368 23 33.75 23H45V34.25C45 40.4632 39.9632 45.5 33.75 45.5C27.5368 45.5 22.5 40.4632 22.5 34.25Z" fill="#17CF97"/>
<path d="M0 34.25C0 40.4632 5.03679 45.5 11.25 45.5H22.5V34.25C22.5 28.0368 17.4632 23 11.25 23C5.03679 23 0 28.0368 0 34.25Z" fill="#17CF97"/>
<path d="M45 11.75C45 5.53679 39.9632 0.5 33.75 0.5H22.5V11.75C22.5 17.9632 27.5368 23 33.75 23C39.9632 23 45 17.9632 45 11.75Z" fill="#17CF97"/>
</svg>
